PathFileType	4	(X/Y/Z)	/Users/itak/Documents/Research/Walk-IL/dataset/trc/00356_00011.trc
DataRate	CameraRate	NumFrames	NumMarkers	Units	OrigDataRate	OrigDataStartFrame	OrigNumFrames
100.000000	100.000000	4	54	mm	100.000000	455	729
Frame#	Time	RPSI			LPSI			STRN			T10			C7			CLAV			RBAK			LBAK			LSHO			LUPA			LAEL			LAOL			LWTS			LWPS			LFRA			LIFD			LHPS			LHTS			RSHO			RUPA			RAEL			RAOL			RWTS			RWPS			RFRA			RIFD			RHTS			RHPS			RBHD			LFHD			RFHD			LBHD			LHIP			RHIP			RASI			LASI			LKNE			LTHI			LANK			LTIP			LTOE			LMT1			LMT5			LHEE			RKNE			RANK			RTIP			RTOE			RMT1			RMT5			RHEE			L3			RTHI			*53			
		X1	Y1	Z1	X2	Y2	Z2	X3	Y3	Z3	X4	Y4	Z4	X5	Y5	Z5	X6	Y6	Z6	X7	Y7	Z7	X8	Y8	Z8	X9	Y9	Z9	X10	Y10	Z10	X11	Y11	Z11	X12	Y12	Z12	X13	Y13	Z13	X14	Y14	Z14	X15	Y15	Z15	X16	Y16	Z16	X17	Y17	Z17	X18	Y18	Z18	X19	Y19	Z19	X20	Y20	Z20	X21	Y21	Z21	X22	Y22	Z22	X23	Y23	Z23	X24	Y24	Z24	X25	Y25	Z25	X26	Y26	Z26	X27	Y27	Z27	X28	Y28	Z28	X29	Y29	Z29	X30	Y30	Z30	X31	Y31	Z31	X32	Y32	Z32	X33	Y33	Z33	X34	Y34	Z34	X35	Y35	Z35	X36	Y36	Z36	X37	Y37	Z37	X38	Y38	Z38	X39	Y39	Z39	X40	Y40	Z40	X41	Y41	Z41	X42	Y42	Z42	X43	Y43	Z43	X44	Y44	Z44	X45	Y45	Z45	X46	Y46	Z46	X47	Y47	Z47	X48	Y48	Z48	X49	Y49	Z49	X50	Y50	Z50	X51	Y51	Z51	X52	Y52	Z52	X53	Y53	Z53	X54	Y54	Z54	

456	4.55	488.6557312011719	932.5653076171875	-364.5905456542969	609.6813354492188	935.6131591796875	-431.8890686035156	671.5077514648438	1172.157592773438	-197.9436798095703	519.37158203125	1117.078369140625	-397.6038513183594	563.5045166015625	1360.269653320312	-357.0998840332031	651.1979370117188	1299.242431640625	-231.0890960693359	472.5978088378906	1225.53515625	-361.1793518066406	635.5242309570312	1324.542724609375	-427.380615234375	731.844482421875	1335.987182617188	-395.4065246582031	759.1676635742188	1223.062866210938	-465.4993896484375	751.9056396484375	1022.086181640625	-498.0977783203125	666.0819702148438	1021.091003417969	-504.5276794433594	748.6646728515625	760.8016357421875	-446.2403564453125	763.9954223632812	762.4821166992188	-514.5411987304688	753.8522338867188	917.597900390625	-512.7971801757812	714.3903198242188	606.1961059570312	-471.2267456054688	743.7847900390625	695.5733642578125	-527.9764404296875	752.0390625	682.077392578125	-465.4085998535156	466.4983520507812	1349.382934570312	-217.1799011230469	407.0359802246094	1285.445556640625	-185.3456420898438	404.3630981445312	1027.772583007812	-105.4206314086914	424.9953918457031	999.71728515625	-193.8320770263672	590.145263671875	899.3952026367188	-7.599352359771729	533.8433837890625	867.005615234375	33.84094619750977	432.4526672363281	978.8947143554688	-64.45096588134766	674.0341186523438	769.3197021484375	70.65364837646484	646.02099609375	837.0851440429688	57.79658889770508	584.7696533203125	808.9634399414062	71.99077606201172	544.4008178710938	1571.787963867188	-272.9824523925781	722.7047119140625	1554.204467773438	-168.1955871582031	627.9188232421875	1558.942260742188	-134.36572265625	668.2916870117188	1564.346435546875	-346.2465209960938	735.9132690429688	887.154541015625	-414.8557739257812	439.6435852050781	867.5134887695312	-244.0406188964844	527.7904663085938	892.3516235351562	-172.3480377197266	741.1156616210938	908.9464721679688	-280.5032348632812	849.423095703125	460.1267700195312	-249.3416900634766	829.7484741210938	585.332275390625	-304.2218017578125	922.900634765625	38.30794906616211	-157.7728729248047	898.95849609375	251.9961242675781	-213.4827117919922	959.62353515625	129.3977966308594	32.84232330322266	891.9578857421875	96.30964660644531	2.052931308746338	988.950439453125	81.554443359375	-58.61051940917969	847.4086303710938	27.91653823852539	-152.30029296875	505.4688110351562	412.1282348632812	-316.4547424316406	449.6227111816406	54.73734664916992	-524.88525390625	519.175048828125	295.4093627929688	-366.4729919433594	635.2247314453125	35.92533111572266	-458.1309509277344	613.2554321289062	36.36567687988281	-522.75	518.9033203125	34.84904861450195	-451.7276000976562	437.6985168457031	71.23367309570312	-591.017333984375	529.18798828125	999.2780151367188	-396.0840148925781	488.8187866210938	654.1088256835938	-221.9314575195312	nan	nan	nan	
457	4.56	495.9532470703125	931.5801391601562	-358.8233032226562	621.0368041992188	933.9453125	-423.9329833984375	677.1112670898438	1170.979248046875	-190.1526947021484	526.8004150390625	1115.887329101562	-391.67724609375	570.5465087890625	1358.961181640625	-350.4836730957031	657.0274047851562	1298.017944335938	-223.5679473876953	479.6820373535156	1224.267822265625	-355.4674987792969	643.3597412109375	1323.101318359375	-420.2154541015625	739.2527465820312	1334.758911132812	-387.2014770507812	767.5809936523438	1221.64697265625	-456.7802429199219	761.9125366210938	1020.548156738281	-489.0823364257812	676.2935791015625	1018.966735839844	-496.1640014648438	760.605224609375	759.41943359375	-437.0349426269531	775.9608154296875	761.3970336914062	-505.3860778808594	764.6276245117188	916.1226196289062	-503.6402282714844	727.7197265625	604.900146484375	-462.9690551757812	756.8028564453125	694.5005493164062	-519.0499877929688	765.0404663085938	680.763916015625	-456.4137268066406	472.2162475585938	1348.079711914062	-211.4945068359375	412.2065124511719	1284.2021484375	-180.4096221923828	408.2080383300781	1026.048461914062	-101.8445587158203	429.6727905273438	998.5241088867188	-190.2572937011719	591.7947998046875	894.3784790039062	-3.489473104476929	534.7431640625	862.2421264648438	37.09280014038086	435.5216674804688	976.3803100585938	-60.97817230224609	673.161376953125	762.3160400390625	74.264404296875	646.17041015625	830.557861328125	61.85784912109375	584.4207763671875	803.1854858398438	75.07435607910156	550.48583984375	1570.58642578125	-266.971435546875	727.5552368164062	1553.208129882812	-160.0394287109375	632.289794921875	1557.935302734375	-127.356330871582	675.2880859375	1563.113159179688	-338.6859130859375	743.6690063476562	885.576904296875	-405.7662658691406	445.1973266601562	866.7457275390625	-238.9260864257812	532.3792114257812	891.2537841796875	-165.9366912841797	747.0101928710938	907.9038696289062	-271.4697265625	854.3258056640625	459.8641052246094	-234.7702941894531	835.8862915039062	584.8202514648438	-291.2121276855469	922.2936401367188	37.02265930175781	-148.2030944824219	900.9383544921875	250.3248138427734	-199.7959899902344	953.843017578125	122.6532592773438	45.10964965820312	887.1806030273438	90.15001678466797	11.82253837585449	985.5027465820312	77.39588928222656	-46.50933074951172	846.8970336914062	26.29593086242676	-145.0158996582031	507.9879760742188	411.7812194824219	-312.4840698242188	450.1366271972656	56.49307250976562	-524.494140625	520.8750610351562	295.1969299316406	-363.2392578125	635.2410278320312	35.95970916748047	-457.748291015625	613.5093994140625	36.93291854858398	-522.3042602539062	519.0479125976562	35.19378280639648	-451.3179016113281	438.4461975097656	74.12421417236328	-590.454345703125	536.8524169921875	998.0408325195312	-389.860107421875	492.9487609863281	653.1969604492188	-216.8143920898438	nan	nan	nan	
458	4.57	503.3407592773438	930.6905517578125	-352.6973266601562	632.21875	932.4989624023438	-415.6609497070312	682.8035278320312	1169.960815429688	-182.242431640625	534.3474731445312	1114.70458984375	-385.5291748046875	577.6994018554688	1357.711547851562	-343.8176879882812	662.9683837890625	1296.958740234375	-215.97900390625	486.9001159667969	1223.028442382812	-349.639404296875	651.2335815429688	1321.731323242188	-412.8877868652344	746.7610473632812	1333.675415039062	-378.928466796875	776.0580444335938	1220.364501953125	-447.9560546875	771.9609375	1019.133605957031	-479.9020080566406	686.5894775390625	1016.955932617188	-487.4907836914062	772.7914428710938	758.2286376953125	-427.4858703613281	788.0408935546875	760.4696044921875	-495.9304504394531	775.46240234375	914.77490234375	-494.2647399902344	741.5239868164062	603.7353515625	-454.1763916015625	770.0635986328125	693.6751098632812	-509.7850646972656	778.4000244140625	679.7007446289062	-447.0348205566406	478.0061340332031	1346.891967773438	-205.8162841796875	417.5196228027344	1283.089599609375	-175.4592742919922	412.026123046875	1024.45263671875	-98.35726928710938	434.3916320800781	997.4928588867188	-186.7403564453125	593.1069946289062	889.0484008789062	0.4562082588672638	535.2654418945312	857.2848510742188	40.08210372924805	438.5017700195312	973.924560546875	-57.62334060668945	671.6995849609375	754.8286743164062	77.49990081787109	645.8442993164062	823.57275390625	65.69471740722656	583.5714111328125	797.0689697265625	77.82720947265625	556.592529296875	1569.504638671875	-260.8684997558594	732.3704223632812	1552.30712890625	-151.7702331542969	636.6546020507812	1557.005126953125	-120.2557220458984	682.2935180664062	1562.042114257812	-330.9904479980469	751.4525756835938	884.1557006835938	-396.2267456054688	450.7979125976562	865.9862060546875	-233.5182495117188	536.990966796875	890.1758422851562	-159.1984710693359	752.9085693359375	907.0357666015625	-262.0191040039062	859.0007934570312	459.7963256835938	-220.0051727294922	841.7482299804688	584.487060546875	-277.8860778808594	921.5516357421875	35.97035217285156	-140.3495178222656	902.5902099609375	248.6667633056641	-186.5864868164062	946.796875	114.5229034423828	56.11856842041016	881.4671020507812	82.75826263427734	19.85039329528809	981.2433471679688	72.64556884765625	-35.68035888671875	846.3116455078125	24.81077766418457	-139.8248596191406	510.7473449707031	411.4624938964844	-308.2315979003906	450.6679077148438	58.49360656738281	-523.984619140625	522.73974609375	295.0445861816406	-359.7508239746094	635.2332153320312	36.00022125244141	-457.3318786621094	613.7845458984375	37.55411529541016	-521.7949829101562	519.2177734375	35.52985763549805	-450.8684387207031	439.2901000976562	77.35889434814453	-589.73388671875	544.5779418945312	996.7893676757812	-383.2605590820312	497.068603515625	652.3240966796875	-211.4398651123047	nan	nan	nan	
459	4.58	510.8031921386719	929.9057006835938	-346.1970825195312	642.837158203125	931.3356323242188	-407.1550903320312	688.5579833984375	1169.119873046875	-174.2043151855469	542.0257568359375	1113.539794921875	-379.15185546875	584.9705200195312	1356.537475585938	-337.1083374023438	669.0090942382812	1296.090087890625	-208.31787109375	494.2665405273438	1221.824584960938	-343.7066650390625	659.1742553710938	1320.431762695312	-405.3998718261719	754.38427734375	1332.741577148438	-370.5691223144531	784.621826171875	1219.21826171875	-439.0052490234375	782.0491943359375	1017.852355957031	-470.5475769042969	696.9332885742188	1015.069152832031	-478.5076599121094	785.185791015625	757.25	-417.5825500488281	800.203125	759.696533203125	-486.1512451171875	786.3516845703125	913.5556030273438	-484.6644897460938	755.76513671875	602.678955078125	-444.7658996582031	783.4929809570312	693.0571899414062	-500.1362609863281	792.0464477539062	678.8845825195312	-437.2393188476562	483.8558044433594	1345.834228515625	-200.1629638671875	422.9562072753906	1282.112426757812	-170.5233306884766	415.8200378417969	1022.999572753906	-94.96265411376953	439.15771484375	996.626953125	-183.2783508300781	594.0938110351562	883.455322265625	4.212943077087402	535.4044189453125	852.1767578125	42.78896331787109	441.4144287109375	971.5518798828125	-54.37952423095703	669.6459350585938	746.9236450195312	80.32662200927734	645.0328979492188	816.1904907226562	69.27573394775391	582.2233276367188	790.6693725585938	80.23272705078125	562.7213134765625	1568.573974609375	-254.6809997558594	737.1309814453125	1551.51708984375	-143.3714141845703	641.0009155273438	1556.171508789062	-113.0656661987305	689.3201904296875	1561.175537109375	-323.1636962890625	759.2547607421875	882.9174194335938	-386.2374572753906	456.4443359375	865.2343139648438	-227.7936401367188	541.6399536132812	889.112060546875	-152.1201019287109	758.8132934570312	906.3554077148438	-252.1424255371094	863.3946533203125	459.8742370605469	-205.2151794433594	847.2373657226562	584.2664794921875	-264.3685302734375	920.9548950195312	35.27145385742188	-133.8953552246094	904.0234375	247.1335296630859	-173.8728179931641	938.8399047851562	105.3304290771484	65.98748779296875	875.1641845703125	74.52751922607422	26.32778739929199	976.4934692382812	67.53460693359375	-25.93587875366211	845.919921875	23.69565391540527	-136.3347778320312	513.7978515625	411.1653442382812	-303.6434020996094	451.2564392089844	60.76511001586914	-523.3385009765625	524.7919921875	294.9462890625	-355.9692993164062	635.2071533203125	36.04447174072266	-456.8879699707031	614.08203125	38.23972702026367	-521.214599609375	519.4217529296875	35.83290100097656	-450.3870239257812	440.26513671875	80.98565673828125	-588.823486328125	552.3870849609375	995.5191040039062	-376.2298889160156	501.1857604980469	651.4932861328125	-205.7792053222656	nan	nan	nan	
